<svg data-v-fde0c5aa="" xmlns="http://www.w3.org/2000/svg" viewBox="0 0 300 300" class="iconLeftSlogan"><!----><defs data-v-fde0c5aa=""><!----></defs><rect data-v-fde0c5aa="" fill="transparent" x="0" y="0" width="300px" height="300px" class="logo-background-square"></rect><defs data-v-fde0c5aa=""><!----></defs><g data-v-fde0c5aa="" id="e5ce5afd-dc11-4b76-84db-bfcd9544ec44" fill="#000000" transform="matrix(2.766723155975342,0,0,2.766723155975342,170.18957313073165,115.91545893162882)"><path d="M2.41 13.64L1.50 13.64L1.50 3.63L2.96 3.63L8.29 10.83L8.95 11.92L9.08 11.92L8.98 10.62L8.98 3.63L9.89 3.63L9.89 13.64L9.13 13.64L3.08 5.43L2.45 4.32L2.31 4.32L2.41 5.66L2.41 13.64ZM18.12 12.43L18.12 13.10L18.12 13.10Q17.89 13.25 17.59 13.38L17.59 13.38L17.59 13.38Q17.28 13.50 16.94 13.59L16.94 13.59L16.94 13.59Q16.60 13.69 16.26 13.73L16.26 13.73L16.26 13.73Q15.91 13.78 15.60 13.78L15.60 13.78L15.60 13.78Q14.95 13.78 14.34 13.55L14.34 13.55L14.34 13.55Q13.73 13.32 13.25 12.87L13.25 12.87L13.25 12.87Q12.78 12.41 12.49 11.72L12.49 11.72L12.49 11.72Q12.20 11.04 12.20 10.12L12.20 10.12L12.20 10.12Q12.20 9.22 12.48 8.50L12.48 8.50L12.48 8.50Q12.76 7.79 13.23 7.29L13.23 7.29L13.23 7.29Q13.70 6.79 14.30 6.53L14.30 6.53L14.30 6.53Q14.90 6.26 15.54 6.26L15.54 6.26L15.54 6.26Q16.11 6.26 16.63 6.47L16.63 6.47L16.63 6.47Q17.14 6.69 17.53 7.08L17.53 7.08L17.53 7.08Q17.92 7.47 18.15 8.04L18.15 8.04L18.15 8.04Q18.38 8.60 18.38 9.30L18.38 9.30L18.38 9.30Q18.38 9.45 18.37 9.68L18.37 9.68L18.37 9.68Q18.35 9.92 18.32 10.16L18.32 10.16L13.23 10.16L13.23 10.16Q13.23 10.75 13.43 11.24L13.43 11.24L13.43 11.24Q13.62 11.73 13.99 12.09L13.99 12.09L13.99 12.09Q14.36 12.46 14.90 12.66L14.90 12.66L14.90 12.66Q15.43 12.86 16.10 12.86L16.10 12.86L16.10 12.86Q16.27 12.86 16.51 12.84L16.51 12.84L16.51 12.84Q16.75 12.82 17.03 12.78L17.03 12.78L17.03 12.78Q17.30 12.73 17.59 12.65L17.59 12.65L17.59 12.65Q17.87 12.56 18.12 12.43L18.12 12.43ZM13.23 9.38L17.42 9.38L17.42 9.38Q17.42 8.83 17.25 8.41L17.25 8.41L17.25 8.41Q17.08 8.00 16.80 7.72L16.80 7.72L16.80 7.72Q16.52 7.44 16.16 7.30L16.16 7.30L16.16 7.30Q15.80 7.16 15.41 7.16L15.41 7.16L15.41 7.16Q14.94 7.16 14.54 7.35L14.54 7.35L14.54 7.35Q14.14 7.54 13.86 7.85L13.86 7.85L13.86 7.85Q13.57 8.17 13.41 8.57L13.41 8.57L13.41 8.57Q13.24 8.97 13.23 9.38L13.23 9.38ZM20.49 13.64L20.49 6.40L21.27 6.40L21.42 8.50L21.42 8.50Q21.66 8.01 21.93 7.60L21.93 7.60L21.93 7.60Q22.20 7.19 22.50 6.89L22.50 6.89L22.50 6.89Q22.80 6.60 23.16 6.43L23.16 6.43L23.16 6.43Q23.51 6.26 23.93 6.26L23.93 6.26L23.93 6.26Q24.12 6.26 24.26 6.30L24.26 6.30L24.26 6.30Q24.41 6.34 24.59 6.43L24.59 6.43L24.49 7.32L24.49 7.32Q24.40 7.29 24.25 7.27L24.25 7.27L24.25 7.27Q24.10 7.26 23.97 7.26L23.97 7.26L23.97 7.26Q23.65 7.26 23.34 7.38L23.34 7.38L23.34 7.38Q23.03 7.49 22.72 7.76L22.72 7.76L22.72 7.76Q22.41 8.03 22.10 8.46L22.10 8.46L22.10 8.46Q21.79 8.89 21.47 9.53L21.47 9.53L21.47 13.64L20.49 13.64ZM28.73 13.78L28.73 13.78L28.73 13.78Q27.94 13.78 27.31 13.48L27.31 13.48L27.31 13.48Q26.69 13.19 26.25 12.69L26.25 12.69L26.25 12.69Q25.82 12.19 25.59 11.53L25.59 11.53L25.59 11.53Q25.35 10.88 25.35 10.16L25.35 10.16L25.35 10.16Q25.35 9.34 25.64 8.63L25.64 8.63L25.64 8.63Q25.93 7.92 26.43 7.40L26.43 7.40L26.43 7.40Q26.94 6.87 27.62 6.57L27.62 6.57L27.62 6.57Q28.31 6.26 29.10 6.26L29.10 6.26L29.10 6.26Q29.90 6.26 30.53 6.56L30.53 6.56L30.53 6.56Q31.15 6.86 31.58 7.37L31.58 7.37L31.58 7.37Q32.01 7.88 32.24 8.53L32.24 8.53L32.24 8.53Q32.46 9.19 32.46 9.91L32.46 9.91L32.46 9.91Q32.46 10.72 32.18 11.43L32.18 11.43L32.18 11.43Q31.89 12.13 31.39 12.66L31.39 12.66L31.39 12.66Q30.88 13.18 30.20 13.48L30.20 13.48L30.20 13.48Q29.52 13.78 28.73 13.78ZM28.92 12.89L28.92 12.89L28.92 12.89Q29.49 12.89 29.96 12.65L29.96 12.65L29.96 12.65Q30.42 12.42 30.75 12.03L30.75 12.03L30.75 12.03Q31.08 11.64 31.26 11.13L31.26 11.13L31.26 11.13Q31.44 10.62 31.44 10.07L31.44 10.07L31.44 10.07Q31.44 9.53 31.27 9.01L31.27 9.01L31.27 9.01Q31.10 8.48 30.77 8.07L30.77 8.07L30.77 8.07Q30.45 7.66 29.98 7.41L29.98 7.41L29.98 7.41Q29.50 7.16 28.90 7.16L28.90 7.16L28.90 7.16Q28.33 7.16 27.87 7.39L27.87 7.39L27.87 7.39Q27.41 7.62 27.08 8.00L27.08 8.00L27.08 8.00Q26.74 8.39 26.56 8.91L26.56 8.91L26.56 8.91Q26.38 9.42 26.38 9.98L26.38 9.98L26.38 9.98Q26.38 10.51 26.55 11.03L26.55 11.03L26.55 11.03Q26.72 11.55 27.05 11.97L27.05 11.97L27.05 11.97Q27.37 12.38 27.84 12.63L27.84 12.63L27.84 12.63Q28.31 12.89 28.92 12.89Z"></path></g><defs data-v-fde0c5aa=""><linearGradient data-v-fde0c5aa="" gradientTransform="rotate(25)" id="4f4fd4af-3484-4505-9402-53fcbaee4c2e" x1="0%" y1="0%" x2="100%" y2="0%"><stop data-v-fde0c5aa="" offset="0%" stop-color="#395ECA" stop-opacity="1"></stop><stop data-v-fde0c5aa="" offset="100%" stop-color="#848BD8" stop-opacity="1"></stop></linearGradient></defs><g data-v-fde0c5aa="" id="adc9175d-1d08-4bb4-85d7-adaf7aed4934" stroke="none" fill="url(#4f4fd4af-3484-4505-9402-53fcbaee4c2e)" transform="matrix(1.2578130960464478,0,0,1.2578130960464478,38.073973685110346,84.14660536105615)"><switch><g><path d="M97.923 73.621c-.213-.854-33.235-16.661-33.839-17.038C40.333 70.5 18.92 49.136 18.92 49.136 20 51 44.25 66.083 67.167 50.25c-7.211-4.633-25.094-9.28-36.927-16.069-2.268-1.302-4.485-4.485-9.646-5.843-7.465-1.968-13.745 5.299-13.745 5.299s-2.99 1.281-5.055 2.176c-1.439.625 3.422 1.709 5.131 3.631 1.709 1.922-.03 6.728 0 8.97.25 18.449 29.692 22.857 30.547 23.845.854.991-2.136 4.353-2.136 4.353s1.281.219 2.136 0c.854-.209 2.99-4.353 2.99-4.353 10.893.564 27.414-8.229 31.401-7.181 3.544.931 24.353 10.465 25.207 10.465.853 0 1.067-1.067.853-1.922zM12.244 36.739a2.243 2.243 0 1 1 2.243-2.243 2.248 2.248 0 0 1-2.243 2.243z"></path></g></switch></g><defs data-v-fde0c5aa=""><!----></defs><g data-v-fde0c5aa="" id="e23b4b82-a512-488b-82b0-73100948a2a1" fill="#000000" transform="matrix(0.6223124861717224,0,0,0.6223124861717224,174.12087610257564,160.4903744327578)"><path d="M0.35 13.60L0.35 13.60L0.55 11.66L0.88 11.71L1.07 13.21L1.07 13.21Q1.30 13.64 1.83 13.89L1.83 13.89L1.83 13.89Q2.36 14.14 2.96 14.14L2.96 14.14L2.96 14.14Q3.64 14.14 4.12 13.74L4.12 13.74L4.12 13.74Q4.60 13.33 4.60 12.61L4.60 12.61L4.60 12.61Q4.60 12.20 4.39 11.83L4.39 11.83L4.39 11.83Q4.17 11.46 3.82 11.18L3.82 11.18L3.82 11.18Q3.48 10.90 3.06 10.63L3.06 10.63L3.06 10.63Q2.64 10.36 2.22 10.07L2.22 10.07L2.22 10.07Q1.80 9.79 1.46 9.48L1.46 9.48L1.46 9.48Q1.11 9.17 0.90 8.75L0.90 8.75L0.90 8.75Q0.68 8.33 0.68 7.84L0.68 7.84L0.68 7.84Q0.68 6.88 1.38 6.29L1.38 6.29L1.38 6.29Q2.07 5.71 2.95 5.71L2.95 5.71L2.95 5.71Q3.54 5.71 4.08 5.90L4.08 5.90L4.08 5.90Q4.62 6.09 4.95 6.46L4.95 6.46L4.72 8.58L4.41 8.53L4.22 6.87L4.22 6.87Q4.04 6.54 3.62 6.32L3.62 6.32L3.62 6.32Q3.21 6.10 2.78 6.10L2.78 6.10L2.78 6.10Q2.18 6.10 1.77 6.48L1.77 6.48L1.77 6.48Q1.35 6.87 1.35 7.52L1.35 7.52L1.35 7.52Q1.35 7.96 1.58 8.35L1.58 8.35L1.58 8.35Q1.80 8.74 2.15 9.03L2.15 9.03L2.15 9.03Q2.50 9.32 2.93 9.61L2.93 9.61L2.93 9.61Q3.35 9.89 3.78 10.17L3.78 10.17L3.78 10.17Q4.20 10.45 4.56 10.75L4.56 10.75L4.56 10.75Q4.91 11.05 5.13 11.45L5.13 11.45L5.13 11.45Q5.35 11.85 5.35 12.29L5.35 12.29L5.35 12.29Q5.35 13.28 4.60 13.93L4.60 13.93L4.60 13.93Q3.85 14.57 2.60 14.57L2.60 14.57L2.60 14.57Q1.89 14.57 1.29 14.30L1.29 14.30L1.29 14.30Q0.69 14.03 0.35 13.60ZM14.29 6.36L13.07 6.18L13.12 5.89L19.31 5.89L19.10 8.07L18.79 8.03L18.66 6.24L15.00 6.24L15.00 9.89L17.29 9.89L17.55 8.94L17.92 8.89L17.69 11.55L17.34 11.61L17.23 10.26L15.00 10.26L15.00 14.03L18.85 14.03L19.35 12.19L19.63 12.26L19.43 14.40L13.09 14.40L13.13 14.11L14.29 13.90L14.29 6.36ZM28.59 6.36L27.32 6.14L27.38 5.89L29.45 5.89L34.17 13.17L34.17 6.33L32.92 6.16L32.96 5.89L35.86 5.89L35.81 6.16L34.67 6.32L34.67 14.44L34.30 14.52L29.09 6.65L29.09 13.95L30.35 14.08L30.28 14.40L27.41 14.40L27.45 14.11L28.59 13.90L28.59 6.36ZM43.61 8.09L43.54 5.89L50.60 5.89L50.36 8.16L50.02 8.12L49.90 6.24L47.37 6.24L47.37 13.90L48.58 14.08L48.50 14.40L45.40 14.40L45.44 14.11L46.63 13.90L46.63 6.24L44.20 6.24L43.96 8.15L43.61 8.09ZM59.47 6.33L58.29 6.16L58.33 5.89L61.46 5.89L61.41 6.16L60.21 6.32L60.21 13.95L61.53 14.08L61.47 14.40L58.36 14.40L58.39 14.11L59.47 13.90L59.47 6.33ZM72.04 14.40L69.21 14.40L69.25 14.17L70.39 13.96L70.96 6.36L69.70 6.14L69.75 5.89L71.93 5.89L72.41 7.18L74.56 12.84L77.01 6.88L77.42 5.89L79.65 5.89L79.62 6.14L78.44 6.34L78.82 14.01L80.05 14.12L80.04 14.40L76.88 14.40L76.92 14.17L78.09 13.96L77.70 6.41L74.52 13.99L74.18 14.05L71.39 6.53L70.85 14.01L72.08 14.12L72.04 14.40ZM88.97 6.36L87.75 6.18L87.79 5.89L93.99 5.89L93.78 8.07L93.46 8.03L93.33 6.24L89.68 6.24L89.68 9.89L91.97 9.89L92.22 8.94L92.59 8.89L92.37 11.55L92.02 11.61L91.91 10.26L89.68 10.26L89.68 14.03L93.52 14.03L94.03 12.19L94.31 12.26L94.10 14.40L87.77 14.40L87.81 14.11L88.97 13.90L88.97 6.36ZM103.26 6.36L102.00 6.14L102.05 5.89L104.13 5.89L108.85 13.17L108.85 6.33L107.60 6.16L107.64 5.89L110.54 5.89L110.48 6.16L109.35 6.32L109.35 14.44L108.98 14.52L103.77 6.65L103.77 13.95L105.03 14.08L104.96 14.40L102.08 14.40L102.12 14.11L103.26 13.90L103.26 6.36ZM118.28 8.09L118.21 5.89L125.28 5.89L125.04 8.16L124.69 8.12L124.58 6.24L122.04 6.24L122.04 13.90L123.25 14.08L123.18 14.40L120.08 14.40L120.11 14.11L121.31 13.90L121.31 6.24L118.88 6.24L118.64 8.15L118.28 8.09ZM132.99 13.60L132.99 13.60L133.20 11.66L133.53 11.71L133.72 13.21L133.72 13.21Q133.94 13.64 134.47 13.89L134.47 13.89L134.47 13.89Q135.00 14.14 135.60 14.14L135.60 14.14L135.60 14.14Q136.29 14.14 136.77 13.74L136.77 13.74L136.77 13.74Q137.25 13.33 137.25 12.61L137.25 12.61L137.25 12.61Q137.25 12.20 137.03 11.83L137.03 11.83L137.03 11.83Q136.81 11.46 136.47 11.18L136.47 11.18L136.47 11.18Q136.12 10.90 135.70 10.63L135.70 10.63L135.70 10.63Q135.28 10.36 134.87 10.07L134.87 10.07L134.87 10.07Q134.45 9.79 134.10 9.48L134.10 9.48L134.10 9.48Q133.76 9.17 133.54 8.75L133.54 8.75L133.54 8.75Q133.33 8.33 133.33 7.84L133.33 7.84L133.33 7.84Q133.33 6.88 134.02 6.29L134.02 6.29L134.02 6.29Q134.72 5.71 135.60 5.71L135.60 5.71L135.60 5.71Q136.19 5.71 136.73 5.90L136.73 5.90L136.73 5.90Q137.27 6.09 137.59 6.46L137.59 6.46L137.37 8.58L137.05 8.53L136.87 6.87L136.87 6.87Q136.68 6.54 136.27 6.32L136.27 6.32L136.27 6.32Q135.85 6.10 135.42 6.10L135.42 6.10L135.42 6.10Q134.83 6.10 134.41 6.48L134.41 6.48L134.41 6.48Q134.00 6.87 134.00 7.52L134.00 7.52L134.00 7.52Q134.00 7.96 134.22 8.35L134.22 8.35L134.22 8.35Q134.44 8.74 134.79 9.03L134.79 9.03L134.79 9.03Q135.15 9.32 135.57 9.61L135.57 9.61L135.57 9.61Q135.99 9.89 136.42 10.17L136.42 10.17L136.42 10.17Q136.85 10.45 137.20 10.75L137.20 10.75L137.20 10.75Q137.55 11.05 137.77 11.45L137.77 11.45L137.77 11.45Q138.00 11.85 138.00 12.29L138.00 12.29L138.00 12.29Q138.00 13.28 137.25 13.93L137.25 13.93L137.25 13.93Q136.49 14.57 135.25 14.57L135.25 14.57L135.25 14.57Q134.54 14.57 133.94 14.30L133.94 14.30L133.94 14.30Q133.33 14.03 132.99 13.60Z"></path></g></svg>