<svg data-v-423bf9ae="" xmlns="http://www.w3.org/2000/svg" viewBox="0 0 182.97806848787997 60" class="font"><!----><!----><!----><g data-v-423bf9ae="" id="446b96ea-a545-4725-8108-f9e53bab72ab" fill="black" transform="matrix(5.909965515136719,0,0,5.909965515136719,-8.864948272705078,-21.44671058654785)"><path d="M2.41 13.64L1.50 13.64L1.50 3.63L2.96 3.63L8.29 10.83L8.95 11.92L9.08 11.92L8.98 10.62L8.98 3.63L9.89 3.63L9.89 13.64L9.13 13.64L3.08 5.43L2.45 4.32L2.31 4.32L2.41 5.66L2.41 13.64ZM18.12 12.43L18.12 13.10L18.12 13.10Q17.89 13.25 17.59 13.38L17.59 13.38L17.59 13.38Q17.28 13.50 16.94 13.59L16.94 13.59L16.94 13.59Q16.60 13.69 16.26 13.73L16.26 13.73L16.26 13.73Q15.91 13.78 15.60 13.78L15.60 13.78L15.60 13.78Q14.95 13.78 14.34 13.55L14.34 13.55L14.34 13.55Q13.73 13.32 13.25 12.87L13.25 12.87L13.25 12.87Q12.78 12.41 12.49 11.72L12.49 11.72L12.49 11.72Q12.20 11.04 12.20 10.12L12.20 10.12L12.20 10.12Q12.20 9.22 12.48 8.50L12.48 8.50L12.48 8.50Q12.76 7.79 13.23 7.29L13.23 7.29L13.23 7.29Q13.70 6.79 14.30 6.53L14.30 6.53L14.30 6.53Q14.90 6.26 15.54 6.26L15.54 6.26L15.54 6.26Q16.11 6.26 16.63 6.47L16.63 6.47L16.63 6.47Q17.14 6.69 17.53 7.08L17.53 7.08L17.53 7.08Q17.92 7.47 18.15 8.04L18.15 8.04L18.15 8.04Q18.38 8.60 18.38 9.30L18.38 9.30L18.38 9.30Q18.38 9.45 18.37 9.68L18.37 9.68L18.37 9.68Q18.35 9.92 18.32 10.16L18.32 10.16L13.23 10.16L13.23 10.16Q13.23 10.75 13.43 11.24L13.43 11.24L13.43 11.24Q13.62 11.73 13.99 12.09L13.99 12.09L13.99 12.09Q14.36 12.46 14.90 12.66L14.90 12.66L14.90 12.66Q15.43 12.86 16.10 12.86L16.10 12.86L16.10 12.86Q16.27 12.86 16.51 12.84L16.51 12.84L16.51 12.84Q16.75 12.82 17.03 12.78L17.03 12.78L17.03 12.78Q17.30 12.73 17.59 12.65L17.59 12.65L17.59 12.65Q17.87 12.56 18.12 12.43L18.12 12.43ZM13.23 9.38L17.42 9.38L17.42 9.38Q17.42 8.83 17.25 8.41L17.25 8.41L17.25 8.41Q17.08 8.00 16.80 7.72L16.80 7.72L16.80 7.72Q16.52 7.44 16.16 7.30L16.16 7.30L16.16 7.30Q15.80 7.16 15.41 7.16L15.41 7.16L15.41 7.16Q14.94 7.16 14.54 7.35L14.54 7.35L14.54 7.35Q14.14 7.54 13.86 7.85L13.86 7.85L13.86 7.85Q13.57 8.17 13.41 8.57L13.41 8.57L13.41 8.57Q13.24 8.97 13.23 9.38L13.23 9.38ZM20.49 13.64L20.49 6.40L21.27 6.40L21.42 8.50L21.42 8.50Q21.66 8.01 21.93 7.60L21.93 7.60L21.93 7.60Q22.20 7.19 22.50 6.89L22.50 6.89L22.50 6.89Q22.80 6.60 23.16 6.43L23.16 6.43L23.16 6.43Q23.51 6.26 23.93 6.26L23.93 6.26L23.93 6.26Q24.12 6.26 24.26 6.30L24.26 6.30L24.26 6.30Q24.41 6.34 24.59 6.43L24.59 6.43L24.49 7.32L24.49 7.32Q24.40 7.29 24.25 7.27L24.25 7.27L24.25 7.27Q24.10 7.26 23.97 7.26L23.97 7.26L23.97 7.26Q23.65 7.26 23.34 7.38L23.34 7.38L23.34 7.38Q23.03 7.49 22.72 7.76L22.72 7.76L22.72 7.76Q22.41 8.03 22.10 8.46L22.10 8.46L22.10 8.46Q21.79 8.89 21.47 9.53L21.47 9.53L21.47 13.64L20.49 13.64ZM28.73 13.78L28.73 13.78L28.73 13.78Q27.94 13.78 27.31 13.48L27.31 13.48L27.31 13.48Q26.69 13.19 26.25 12.69L26.25 12.69L26.25 12.69Q25.82 12.19 25.59 11.53L25.59 11.53L25.59 11.53Q25.35 10.88 25.35 10.16L25.35 10.16L25.35 10.16Q25.35 9.34 25.64 8.63L25.64 8.63L25.64 8.63Q25.93 7.92 26.43 7.40L26.43 7.40L26.43 7.40Q26.94 6.87 27.62 6.57L27.62 6.57L27.62 6.57Q28.31 6.26 29.10 6.26L29.10 6.26L29.10 6.26Q29.90 6.26 30.53 6.56L30.53 6.56L30.53 6.56Q31.15 6.86 31.58 7.37L31.58 7.37L31.58 7.37Q32.01 7.88 32.24 8.53L32.24 8.53L32.24 8.53Q32.46 9.19 32.46 9.91L32.46 9.91L32.46 9.91Q32.46 10.72 32.18 11.43L32.18 11.43L32.18 11.43Q31.89 12.13 31.39 12.66L31.39 12.66L31.39 12.66Q30.88 13.18 30.20 13.48L30.20 13.48L30.20 13.48Q29.52 13.78 28.73 13.78ZM28.92 12.89L28.92 12.89L28.92 12.89Q29.49 12.89 29.96 12.65L29.96 12.65L29.96 12.65Q30.42 12.42 30.75 12.03L30.75 12.03L30.75 12.03Q31.08 11.64 31.26 11.13L31.26 11.13L31.26 11.13Q31.44 10.62 31.44 10.07L31.44 10.07L31.44 10.07Q31.44 9.53 31.27 9.01L31.27 9.01L31.27 9.01Q31.10 8.48 30.77 8.07L30.77 8.07L30.77 8.07Q30.45 7.66 29.98 7.41L29.98 7.41L29.98 7.41Q29.50 7.16 28.90 7.16L28.90 7.16L28.90 7.16Q28.33 7.16 27.87 7.39L27.87 7.39L27.87 7.39Q27.41 7.62 27.08 8.00L27.08 8.00L27.08 8.00Q26.74 8.39 26.56 8.91L26.56 8.91L26.56 8.91Q26.38 9.42 26.38 9.98L26.38 9.98L26.38 9.98Q26.38 10.51 26.55 11.03L26.55 11.03L26.55 11.03Q26.72 11.55 27.05 11.97L27.05 11.97L27.05 11.97Q27.37 12.38 27.84 12.63L27.84 12.63L27.84 12.63Q28.31 12.89 28.92 12.89Z"></path></g><!----><!----></svg>